<svg width="24" height="30" viewBox="0 0 24 30" fill="none" xmlns="http://www.w3.org/2000/svg">
<path d="M1 26.667V5.97808C1 4.2357 1 3.36386 1.34255 2.69835C1.64387 2.11296 2.12431 1.63737 2.71568 1.33909C3.38797 1 4.26871 1 6.02888 1H20.486C21.3661 1 21.8068 1 22.1429 1.16955C22.4386 1.31868 22.6775 1.55648 22.8281 1.84918C22.9994 2.18193 23 2.61785 23 3.48904V21.8446C23 22.7158 22.9994 23.1508 22.8281 23.4835C22.6775 23.7762 22.4389 24.0148 22.1432 24.164C21.8074 24.3333 21.3673 24.3333 20.4889 24.3333H4.53571C2.58299 24.3333 1 25.9003 1 27.8333C1 28.4777 1.52766 29 2.17857 29H18.9175C19.7958 29 20.236 29 20.5718 28.8306C20.8675 28.6815 21.106 28.443 21.2567 28.1504C21.428 27.8176 21.4286 27.3823 21.4286 26.5111V24.3333" stroke="#4D4D4D" stroke-width="2" stroke-linecap="round" stroke-linejoin="round"/>
</svg>
