<svg width="34" height="29" viewBox="0 0 34 29" fill="none" xmlns="http://www.w3.org/2000/svg">
<path d="M17 9.63976V28M17 28L15.9662 26.4302C15.0475 25.035 14.5868 24.3352 13.9774 23.8281C13.4358 23.3774 12.8099 23.0396 12.139 22.8333C11.3812 22.6003 10.5466 22.6003 8.87685 22.6003H3.84083C2.84713 22.6003 2.3504 22.6003 1.97049 22.4043C1.63598 22.2317 1.36421 21.9556 1.19377 21.6169C1 21.2319 1 20.7285 1 19.7204V3.88022C1 2.87211 1 2.36768 1.19377 1.98263C1.36421 1.64394 1.63598 1.36877 1.97049 1.19619C2.35077 1 2.8481 1 3.84375 1H8.46597C11.4529 1 12.9467 1 14.0876 1.58857C15.0911 2.1063 15.9071 2.93268 16.4184 3.94877C16.9997 5.10391 17 6.61544 17 9.63976C17 6.61544 17 5.10391 17.5813 3.94877C18.0926 2.93268 18.9079 2.1063 19.9115 1.58857C21.0523 1 22.546 1 25.533 1H30.1552C31.1509 1 31.649 1 32.0293 1.19619C32.3638 1.36877 32.6351 1.64394 32.8056 1.98263C32.9993 2.36768 33 2.87211 33 3.88022V19.7204C33 20.7285 32.9993 21.2319 32.8056 21.6169C32.6351 21.9556 32.3644 22.2317 32.0299 22.4043C31.65 22.6003 31.1529 22.6003 30.1592 22.6003H25.1233C23.4536 22.6003 22.6172 22.6003 21.8594 22.8333C21.1885 23.0396 20.5656 23.3774 20.024 23.8281C19.4121 24.3373 18.9485 25.0406 18.0223 26.4473L17 28Z" stroke="black" stroke-width="2" stroke-linecap="round" stroke-linejoin="round"/>
</svg>
