<svg width="30" height="63" viewBox="0 0 30 63" fill="none" xmlns="http://www.w3.org/2000/svg">
<path d="M0.00021188 12.3971V49.1411C0.00021188 54.4136 0.000211895 57.0494 0.506797 58.6626C1.44574 61.6528 3.50348 63.3713 5.61823 62.9321C6.7592 62.6951 8.16449 61.2328 10.9751 58.3081L10.9818 58.3011C12.0958 57.1419 12.6529 56.5622 13.2356 56.2407C14.3059 55.6502 15.4738 55.6502 16.5441 56.2407C17.128 56.5629 17.6872 57.1448 18.8057 58.3087C21.6163 61.2334 23.0232 62.6945 24.1641 62.9315C26.2789 63.3707 28.3365 61.6528 29.2755 58.6626C29.782 57.0495 29.782 54.4127 29.782 49.1411V12.3844C29.782 8.05375 29.782 0.000536084 29.782 0.000536084L28 6.85453e-05C28 6.85453e-05 24.6206 6.85453e-05 21.8407 6.85453e-05H7.94252C5.16262 6.85453e-05 2.99984 0 2.99984 0L0 6.85453e-05C0 6.85453e-05 0.00021188 8.058 0.00021188 12.3971Z" fill="currentColor"/>
</svg>
