<svg width="29" height="32" viewBox="0 0 29 32" fill="none" xmlns="http://www.w3.org/2000/svg">
<path d="M16.6174 29.4108L24.8305 24.669C25.7072 24.1628 26.1448 23.9097 26.4636 23.5556C26.7457 23.2423 26.959 22.8733 27.0892 22.4723C27.2361 22.0202 27.2361 21.515 27.2361 20.5074V11.0099C27.2361 10.0022 27.2361 9.49706 27.0892 9.04497C26.959 8.64402 26.7457 8.2747 26.4636 7.9614C26.1461 7.60885 25.7096 7.35681 24.8404 6.85498L16.6159 2.10659C15.7392 1.6004 15.3017 1.34781 14.8356 1.24875C14.4232 1.1611 13.9969 1.1611 13.5845 1.24875C13.1185 1.34781 12.6795 1.6004 11.8028 2.10659L3.58813 6.84931C2.7124 7.35492 2.27487 7.60752 1.95624 7.9614C1.67414 8.2747 1.46111 8.64402 1.33083 9.04497C1.18359 9.49813 1.18359 10.0046 1.18359 11.017V20.5007C1.18359 21.513 1.18359 22.0192 1.33083 22.4723C1.46111 22.8733 1.67414 23.2423 1.95624 23.5556C2.27506 23.9097 2.71291 24.1628 3.58966 24.669L11.8028 29.4108C12.6795 29.917 13.1185 30.1697 13.5845 30.2688C13.9969 30.3564 14.4232 30.3564 14.8356 30.2688C15.3017 30.1697 15.7407 29.917 16.6174 29.4108Z" stroke="black" stroke-width="2.36602" stroke-linecap="round" stroke-linejoin="round"/>
<path d="M9.69738 15.7586C9.69738 18.2508 11.7177 20.2711 14.2099 20.2711C16.702 20.2711 18.7223 18.2508 18.7223 15.7586C18.7223 13.2664 16.702 11.2461 14.2099 11.2461C11.7177 11.2461 9.69738 13.2664 9.69738 15.7586Z" stroke="black" stroke-width="2.36602" stroke-linecap="round" stroke-linejoin="round"/>
</svg>
