<svg width="39" height="35" viewBox="0 0 39 35" fill="none" xmlns="http://www.w3.org/2000/svg">
<path fill-rule="evenodd" clip-rule="evenodd" d="M20.475 0C18.8596 0 17.55 1.30531 17.55 2.91549V32.0704C17.55 33.6806 18.8596 34.9859 20.475 34.9859H24.375C25.9904 34.9859 27.3 33.6806 27.3 32.0704V2.91549C27.3 1.30531 25.9904 0 24.375 0H20.475ZM24.375 2.91549L20.475 2.91549V32.0704H24.375V2.91549Z" fill="#363538"/>
<path fill-rule="evenodd" clip-rule="evenodd" d="M11.2532 0.100067C9.69284 -0.316679 8.08895 0.606313 7.67085 2.16163L0.100393 30.3231C-0.317712 31.8784 0.608292 33.4771 2.16868 33.8938L5.93579 34.8999C7.49618 35.3167 9.10006 34.3937 9.51817 32.8384L17.0886 4.67691C17.5067 3.12159 16.5807 1.52292 15.0203 1.10618L11.2532 0.100067ZM14.2633 3.92233L10.4962 2.91621L2.92573 31.0777L6.69284 32.0838L14.2633 3.92233Z" fill="#363538"/>
<path fill-rule="evenodd" clip-rule="evenodd" d="M29.25 2.91549C29.25 1.30531 30.5596 0 32.175 0H36.075C37.6904 0 39 1.30531 39 2.91549V32.0704C39 33.6806 37.6904 34.9859 36.075 34.9859H32.175C30.5596 34.9859 29.25 33.6806 29.25 32.0704V2.91549ZM32.175 2.91549L36.075 2.91549V32.0704H32.175V2.91549Z" fill="#363538"/>
</svg>
