<svg width="50" height="58" viewBox="0 0 50 58" fill="none" xmlns="http://www.w3.org/2000/svg">
<path d="M34.4424 37.853C34.7547 33.0474 36.2257 33.7618 38.7688 30.4425C39.3421 29.6938 40.3144 24.7642 40.4917 23.4931C41.0257 25.8644 41.5869 28.2303 42.1763 30.5905C43.9224 37.5208 44.7295 42.2864 40.2781 48.8028C40.0282 47.1855 39.7784 45.8392 38.0867 44.996C38.265 48.5641 38.5512 50.7912 35.723 53.6303C34.0162 55.344 31.7139 56.8079 29.5135 58C28.2994 56.9115 27.4053 56.4695 25.8254 55.8665C25.7015 54.1833 25.3858 51.1824 25.3911 49.5723C25.3678 49.4706 25.3109 48.9851 25.2251 48.9397C25.172 48.9453 25.2067 48.9379 25.1283 48.9804C24.7701 50.904 24.2144 53.3686 23.7354 55.2718C21.394 54.8853 18.9338 54.6985 16.6008 55.2663C13.9629 51.9213 13.0014 48.9582 13.5158 44.9206C13.1691 45.0276 12.8132 45.1575 12.4702 45.277C11.737 46.1085 11.4232 47.2131 10.9692 48.23C10.5871 47.1356 10.2449 46.1876 9.97205 45.0599C8.32118 38.2356 11.3985 32.3834 12.8502 25.796C12.9294 25.3594 12.9836 24.9963 13.082 24.5552C13.1275 26.1007 13.1565 28.2405 13.0907 29.7713C13.1192 30.5547 13.1291 31.3562 13.2457 32.1311C14.8824 33.8739 15.4794 34.5855 15.7429 36.938C21.661 33.1773 28.9069 33.7917 34.4424 37.853Z" fill="#141415"/>
<path d="M13.0818 24.5552C13.1274 26.1007 13.1564 28.2405 13.0906 29.7713C12.9263 28.809 13.2014 26.2985 12.8501 25.796C12.9293 25.3594 12.9835 24.9963 13.0818 24.5552Z" fill="#494749"/>
<path d="M24.0974 38.003C26.9717 37.708 29.0599 39.434 30.9188 41.1701C29.3702 41.1795 27.8085 41.1627 26.2588 41.1554C23.6542 41.1492 21.9964 41.1057 19.4053 40.9106C19.5989 40.3147 19.6794 40.0994 19.9744 39.5384C20.9122 38.9736 23.0172 38.3068 24.0974 38.003Z" fill="white"/>
<path d="M11.1807 20.7037C13.2368 20.7849 15.2674 20.7304 17.3349 20.7054C18.9986 20.6852 21.7509 20.718 21.9995 22.745C22.1679 24.1174 22.0538 25.6811 22.0243 27.0816C21.9868 29.1315 21.9653 31.1816 21.9596 33.2318C21.5854 33.3031 21.2125 33.3794 20.8408 33.4609C20.1893 33.6394 19.5862 33.8835 18.9588 34.1231C19.0868 33.998 19.758 33.3152 19.7846 33.1241C20.1269 30.5595 19.894 27.8191 19.9206 25.2227C19.9538 21.9838 15.294 24.1848 13.3066 23.2538C12.0104 22.6467 11.7179 21.8634 11.1807 20.7037Z" fill="#141415"/>
<path d="M26.1323 0C28.9734 0.927944 34.3769 1.96159 34.9472 5.1663C35.0781 5.90216 35.4761 7.0958 35.4358 7.81067C33.5003 7.60962 32.4505 7.53424 30.6429 6.62433C28.8606 5.72719 26.5425 1.70625 26.1323 0Z" fill="#141415"/>
<path d="M20.8189 0.00537682C20.8686 0.399526 19.1237 4.18658 18.7455 4.77059C17.6363 6.48341 16.386 7.38648 14.2598 7.82169C13.689 7.93849 13.2766 8.04373 12.7406 8.24553C12.5949 6.40823 12.4059 5.68781 13.4313 3.88019C14.3616 2.24043 18.9563 0.445396 20.8189 0.00537682Z" fill="#141415"/>
<path d="M32.1047 8.90517C34.4372 8.986 36.006 10.2931 37.3571 11.9616C35.7359 12.7915 34.2055 13.5886 32.3173 13.5411C29.9738 13.1478 28.1874 11.622 26.8811 9.87325C28.8282 9.29424 30.0554 8.98942 32.1047 8.90517Z" fill="#141415"/>
<path d="M42.4937 21.1761C43.1355 21.2975 43.7249 21.2751 44.3798 21.2515C45.5062 21.4584 46.4866 21.7988 47.3652 22.506C48.5138 23.4205 49.21 24.7219 49.2966 26.1148C49.3732 27.4997 48.8563 28.8571 47.8558 29.8964C46.5833 31.2311 45.208 31.7144 43.3198 31.827C43.3279 31.0858 43.3309 30.6935 43.4569 29.9674C45.5647 29.6667 47.3964 28.3056 47.2412 26.2034C47.1737 25.3272 46.7092 24.5171 45.9606 23.9704C44.8483 23.153 43.8095 23.147 42.4987 23.2818L42.4937 21.1761Z" fill="#141415"/>
<path d="M37.605 0.683815C38.8393 1.35365 41.5113 4.19084 42.0554 5.55973C42.6931 7.16573 42.142 8.09164 41.4609 9.53803L40.9793 10.4055C40.1501 9.80826 38.7879 9.25134 38.2398 8.58299C37.2443 7.36817 37.2735 2.06315 37.605 0.683815Z" fill="#141415"/>
<path d="M27.9144 20.8177C29.0821 20.7179 30.4534 20.7677 31.6463 20.7729L37.5052 20.7882C36.9229 22.6128 36.1602 23.2801 34.1179 23.4508C32.667 23.4859 31.1547 23.4368 29.6998 23.4406C27.8116 23.4454 26.8977 23.3146 25.8406 24.9231C25.7574 23.0339 25.7414 21.6402 27.9144 20.8177Z" fill="#141415"/>
<path d="M45.333 6.13578L45.4791 6.20782C46.1582 7.16425 46.6529 9.48189 46.7285 10.6261C46.9532 14.0104 46.2247 14.3961 44.0212 16.732C43.722 15.7329 43.0237 14.8645 42.7184 14.0275C41.8872 11.7522 44.1743 8.19956 45.333 6.13578Z" fill="#141415"/>
<path d="M10.458 1.35141C10.5429 1.83767 10.5124 3.54032 10.5075 4.08817C10.4932 5.72932 10.5148 7.43678 10.4462 9.07358C9.93523 9.81582 8.60386 10.795 7.81334 11.2919C7.62936 11.0717 7.4351 10.7864 7.26482 10.5503C4.8191 6.56645 7.52537 4.12637 10.458 1.35141Z" fill="#141415"/>
<path d="M17.5834 9.08331C18.8079 9.06583 20.3405 9.53905 21.5039 9.9111C20.5735 10.9691 19.3108 12.1954 18.1063 12.9898C17.3508 13.4882 16.43 13.4891 15.5383 13.5161C13.582 13.4436 13.1072 13.1552 11.4148 12.4401C13.039 10.703 15.0622 9.36066 17.5834 9.08331Z" fill="#141415"/>
<path d="M36.283 15.0076C39.7289 14.7913 40.412 15.2915 41.5011 18.2064L41.6321 18.5637C40.018 19.1254 39.4669 19.325 37.8336 19.1149L37.745 19.1042C35.4125 18.4914 33.4417 17.358 31.9224 15.6214C33.5042 15.2009 34.6558 15.1042 36.283 15.0076Z" fill="#141415"/>
<path d="M3.71234 7.06297C4.09884 7.25551 6.05731 10.6701 6.34527 11.2694C7.36269 13.3864 6.66083 14.1751 5.84492 16.1242L5.71132 16.4496C4.9871 16.0577 3.69522 15.2905 3.08464 14.7662L2.98439 14.6819C1.95619 12.0162 2.47235 9.5762 3.71234 7.06297Z" fill="#141415"/>
<path d="M12.438 8.38338C12.5792 8.49815 12.6239 8.55697 12.4786 8.75996C8.22633 14.6993 7.01192 19.3493 8.79307 26.4695L8.17867 25.526C6.6207 23.1413 6.03178 20.6555 6.49586 17.8955C7.05122 14.593 9.47115 10.3768 12.438 8.38338Z" fill="#141415"/>
<path d="M0.0211018 15.285C1.07036 15.694 4.39326 17.8401 5.21341 18.6951C6.17491 19.6975 5.95809 21.1024 5.84786 22.3389C1.99762 22.2368 -0.243581 18.5309 0.0211018 15.285Z" fill="#141415"/>
<path d="M12.8127 15.2692C13.5607 15.2777 14.3065 15.3972 15.0291 15.5705C15.7142 15.733 16.3893 15.9291 17.0514 16.1582C15.9019 17.407 14.5608 18.4259 13.0373 19.2682C11.3513 19.8278 10.2367 19.3218 8.77759 18.5264C9.40741 16.4556 10.4947 15.6298 12.8127 15.2692Z" fill="#141415"/>
<path d="M35.4014 7.92025C39.4759 9.58026 41.6502 12.8256 43.365 16.5219C43.7086 17.2622 44.5469 20.1882 44.4854 20.9831L44.3796 21.2515C43.7247 21.2751 43.1353 21.2975 42.4935 21.176C42.4885 21.1027 42.4844 21.0295 42.4794 20.9561C42.8008 16.9272 39.2331 11.9693 36.4845 9.04721C36.1278 8.66777 35.7671 8.29202 35.4014 7.92025Z" fill="#141415"/>
<path d="M42.4795 20.9562C43.1433 20.9597 43.8282 20.9869 44.4849 20.9832L44.3792 21.2515C43.7245 21.2751 43.1352 21.2975 42.4936 21.1761C42.4885 21.1027 42.4845 21.0295 42.4795 20.9562Z" fill="#E2E2E3"/>
<path d="M6.40518 23.8111C6.71037 24.0744 7.28316 25.2583 7.54824 25.6976C6.89293 28.374 7.48326 29.611 10.4435 30.3344C10.5068 30.8175 10.583 31.3214 10.6723 31.8006C10.8089 32.5333 10.4926 32.3611 9.84042 32.2936C5.49627 31.238 3.75009 27.2636 6.40518 23.8111Z" fill="#141415"/>
<path d="M49.6623 13.3973C49.7469 13.5129 49.755 13.5281 49.7792 13.6692C50.159 15.9026 49.7691 18.7703 47.361 19.9402C46.9328 20.1482 46.3444 20.2456 45.8719 20.3522C45.4417 18.7821 45.2301 17.7158 46.4018 16.3992C47.4235 15.2502 48.4129 14.3421 49.6623 13.3973Z" fill="#141415"/>
</svg>
