<svg width="265" height="33" viewBox="0 0 265 33" fill="none" xmlns="http://www.w3.org/2000/svg">
<path d="M162.074 17.5492C163.26 17.733 168.107 18.6866 168.963 19.0343C168.972 19.5329 168.985 19.95 168.934 20.4472C167.264 20.1775 165.307 19.8291 163.654 19.485C162.136 20.1217 159.318 21.4444 157.851 22.2041L158.024 22.3536C159.901 21.6075 161.824 20.7612 163.654 20.043C165.395 20.5323 167.332 20.6174 169.077 21.1239C170.304 21.4794 169.751 22.9209 169.38 23.6892C166.6 22.3014 165.513 22.7478 162.75 23.9067C163.385 25.5693 164.739 28.2805 163.698 29.9638C163.175 30.8094 160.663 30.7479 159.854 30.2099C159.734 29.8758 160.029 29.6906 160.007 29.5253C159.686 27.1853 156.182 22.6419 154.917 20.7862C155.031 20.7376 155.145 20.6875 155.258 20.636C157.377 19.8141 160.014 18.5149 162.074 17.5492Z" fill="#090909"/>
<path d="M156.527 22.8579C156.964 22.634 157.406 22.4158 157.851 22.204L158.024 22.3536C157.332 22.6183 157.256 22.6769 156.527 22.8579Z" fill="#BEC0C4"/>
<path d="M148.208 2.03611C149.43 1.8122 150.798 1.82865 152.137 1.54822C153.915 1.1748 155.028 0.575307 156.679 0C158.693 0.729113 158.592 2.13841 159.029 3.87749L159.221 3.75302C159.337 4.2824 159.48 4.73451 159.629 5.25173L159.484 5.52786C160.166 7.34922 160.744 9.30292 161.435 11.1758C160.291 10.8159 159.759 10.6163 158.543 10.4997C157.046 11.0899 156.067 11.8418 154.984 12.9127C153.954 10.0712 151.939 5.07718 149.669 2.90315C149.402 2.64847 148.598 2.24357 148.208 2.03611Z" fill="#090909"/>
<path d="M160.877 14.5088C161.85 14.654 166.827 15.828 167.541 16.2508C167.92 16.7544 167.794 17.4912 167.731 18.0857C165.768 17.738 163.75 17.2516 161.809 16.9482C159.773 17.8947 157.017 19.3913 155.13 20.498L155.258 20.636C155.145 20.6875 155.031 20.7376 154.916 20.7863L154.865 20.7469C154.309 20.0351 153.785 19.3648 153.27 18.628C154.807 17.7931 156.335 16.9454 157.855 16.0848C158.707 15.6112 159.988 14.8751 160.877 14.5088Z" fill="#090909"/>
<path d="M155.131 20.4979L155.259 20.6363C155.145 20.6879 155.031 20.7381 154.917 20.7868L154.865 20.7474C154.994 20.6033 154.982 20.6054 155.131 20.4979Z" fill="#BEC0C4"/>
<path d="M158.871 11.0849C160.745 11.5428 162.604 12.1959 164.394 12.8834C165.565 13.3334 165.782 14.0645 166.195 15.0775C164.209 14.7584 162.503 14.1589 160.515 13.8012C159.558 14.3621 158.565 14.9022 157.598 15.4659C156.041 16.3408 154.456 17.303 152.914 18.208C152.507 17.7451 152.135 17.2572 151.8 16.7479C153.998 14.8714 156.791 12.9535 158.871 11.0849Z" fill="#090909"/>
<path d="M146.827 2.38524C148.418 2.26291 149.266 2.92392 150.027 4.14435C149.325 3.81027 149.212 3.7559 148.458 3.55058C147.855 3.67363 147.707 3.72371 147.161 3.98482C146.834 4.14077 145.673 5.40198 145.886 5.62947C145.602 5.56366 147.275 5.4864 147.02 5.52074C147.062 5.46565 147.103 5.40986 147.144 5.35477C148.279 3.7838 149.873 4.29601 150.615 5.86054C150.915 6.91143 150.796 8.10468 149.769 8.82221C148.542 9.67923 146.501 9.46747 145.647 8.21985C144.411 6.41567 144.076 3.20435 146.827 2.38524Z" fill="#090909"/>
<path d="M165.987 23.926C166.831 23.8315 167.687 23.9467 168.464 24.2593C169.999 24.8839 170.691 26.065 171.263 27.3963C170.279 27.8441 168.705 28.4507 167.674 28.8435C166.785 29.1862 165.358 29.6476 164.575 30.001C165.065 27.892 164.652 26.4813 163.843 24.4754C164.64 24.2229 165.154 24.059 165.987 23.926Z" fill="#090909"/>
<path d="M171.119 28.1209C171.774 28.0895 170.768 30.0568 170.599 30.2936C169.363 32.0255 167.13 32.8975 165.08 31.7C164.685 31.3988 164.426 31.1899 164.057 30.863L164.167 30.8165C165.121 30.4059 166.175 30.1333 167.116 29.7255C168.425 29.159 169.819 28.6825 171.119 28.1209Z" fill="#090909"/>
<path d="M24.9226 27.2126C24.3105 27.4254 23.6982 27.6384 23.0861 27.8512C22.5005 28.064 21.9416 28.3035 21.4093 28.5696C21.3295 28.5963 21.2629 28.5696 21.2097 28.4898C21.1565 28.3833 21.183 28.2902 21.2895 28.2104C21.5024 28.0508 21.5557 27.8512 21.4492 27.6117C21.2895 27.1594 21.0633 26.574 20.7705 25.8556C20.4778 25.1105 20.1717 24.3521 19.8523 23.5805C19.5595 22.8089 19.2667 22.0771 18.9739 21.3853C18.6812 20.6935 18.4549 20.1613 18.2952 19.7888C17.4701 19.7622 16.5652 19.7489 15.5804 19.7489C14.5956 19.7222 13.5975 19.709 12.5861 19.709C11.5747 19.709 10.5632 19.709 9.55184 19.709C8.56705 19.709 7.63548 19.709 6.75715 19.709C6.19821 21.1458 5.65259 22.596 5.12026 24.0595C4.61456 25.4963 4.09555 26.9332 3.56322 28.3701C3.50999 28.5564 3.50999 28.716 3.56322 28.849C3.61646 28.982 3.69631 29.0619 3.80277 29.0885C3.88262 29.1417 3.89592 29.2215 3.84269 29.328C3.81608 29.4344 3.76284 29.4744 3.683 29.4477C3.12406 29.2349 2.5385 29.0353 1.92634 28.849C1.34078 28.6627 0.728615 28.4765 0.0898287 28.2902C0.00998104 28.2636 -0.016635 28.1971 0.00998104 28.0907C0.0632131 27.9577 0.129754 27.9044 0.209602 27.931C0.55561 28.0108 0.808463 27.8778 0.968159 27.5319C1.84649 25.6693 2.75144 23.6603 3.683 21.5051C4.61456 19.3498 5.54612 17.1413 6.47768 14.8795C7.43586 12.5912 8.39404 10.3028 9.35222 8.0145C10.3371 5.69956 11.3352 3.43782 12.3465 1.22932C12.7191 2.08079 13.0918 2.93227 13.4644 3.78374C13.8636 4.63521 14.2762 5.51329 14.7021 6.41799C14.8884 6.81712 15.1944 7.50894 15.6203 8.49346C16.0727 9.47798 16.5918 10.6221 17.1773 11.926C17.7895 13.2032 18.4283 14.5735 19.0937 16.037C19.7857 17.5005 20.4511 18.9107 21.0899 20.2678C21.7287 21.6248 22.3143 22.8621 22.8466 23.9796C23.4055 25.0972 23.8447 25.9486 24.1641 26.5341C24.2971 26.7469 24.4036 26.8666 24.4835 26.8933C24.5899 26.8933 24.6963 26.8933 24.8028 26.8933C24.8827 26.8666 24.9359 26.9066 24.9625 27.013C25.0157 27.1195 25.0025 27.1859 24.9226 27.2126ZM17.4568 17.873C16.8979 16.6756 16.3656 15.5048 15.8599 14.3606C15.3541 13.1899 14.8884 12.1123 14.4625 11.1277C14.0366 10.1166 13.6508 9.21189 13.3047 8.41363C12.9587 7.58876 12.6526 6.92355 12.3865 6.41799C11.6945 7.77502 10.9625 9.39815 10.1906 11.2874C9.44538 13.1765 8.55373 15.3585 7.51571 17.8331C9.11267 17.8863 10.7628 17.9129 12.4663 17.9129C14.1698 17.9129 15.8332 17.8996 17.4568 17.873ZM44.5946 28.2503C44.2752 28.7559 44.009 29.1816 43.7961 29.5275C43.5831 29.9 43.3303 30.379 43.0376 30.9644C42.9843 31.0442 42.9178 31.0709 42.838 31.0442C42.7581 31.0176 42.7182 30.9378 42.7182 30.8047C42.7182 30.5919 42.585 30.3923 42.3189 30.2061C42.0794 30.0464 41.8398 29.9 41.6003 29.767C40.6953 29.2881 39.6306 28.716 38.4064 28.0508C37.182 27.359 35.9444 26.6538 34.6934 25.9354C33.4691 25.2169 32.2846 24.5118 31.1402 23.82C30.0223 23.1016 29.0907 22.463 28.3455 21.9042C28.931 21.3986 29.5832 20.8265 30.3018 20.1879C31.0204 19.5493 31.7257 18.924 32.4178 18.312C33.1097 17.7001 33.7353 17.1413 34.2942 16.6357C34.8797 16.1035 35.3322 15.7177 35.6516 15.4782C34.4006 14.2276 33.2162 13.0169 32.0984 11.8461C31.007 10.6488 29.8093 9.34493 28.5052 7.93468C30.3949 6.7639 32.3245 5.63303 34.2942 4.54208C36.2904 3.42452 38.3398 2.26705 40.4425 1.06966C40.7086 0.936622 40.9349 0.816884 41.1212 0.710449C41.3075 0.604015 41.4272 0.444363 41.4805 0.231494C41.5071 0.151668 41.5604 0.0851463 41.6402 0.0319299C41.7201 -0.0212866 41.7733 -0.00798251 41.7999 0.0718423C42.0395 0.683839 42.2656 1.1894 42.4786 1.58853C42.6915 1.96105 42.9443 2.40009 43.2372 2.90566C43.2904 2.98548 43.2637 3.05201 43.1573 3.10522C43.0508 3.13183 42.971 3.11852 42.9178 3.06531C42.7846 2.90566 42.585 2.85244 42.3189 2.90566C42.0794 2.95887 41.76 3.07861 41.3608 3.26487C40.5888 3.58417 39.7504 3.97 38.8455 4.42234C37.9672 4.84808 37.0889 5.28713 36.2106 5.73947C35.3588 6.19181 34.547 6.63085 33.7752 7.05659C33.0033 7.48233 32.3512 7.86815 31.8189 8.21407C32.298 8.79946 32.8969 9.47798 33.6155 10.2496C34.3341 11.0212 35.0394 11.7663 35.7315 12.4847C36.4234 13.2032 37.0356 13.8551 37.568 14.4405C38.1269 14.9993 38.4995 15.3717 38.6858 15.558C37.9672 16.2233 37.3018 16.822 36.6896 17.3541C36.0774 17.8863 35.5052 18.3918 34.9729 18.8708C34.4405 19.3498 33.9215 19.8287 33.4159 20.3077C32.9368 20.76 32.4443 21.2389 31.9387 21.7445C32.604 22.1437 33.4025 22.6093 34.3341 23.1415C35.2657 23.6736 36.2238 24.2191 37.2087 24.7779C38.22 25.3367 39.2181 25.8688 40.203 26.3744C41.1877 26.88 42.066 27.3191 42.838 27.6915C43.5299 28.0108 44.009 28.1439 44.2752 28.0907C44.3551 28.064 44.4349 28.0774 44.5148 28.1306C44.6212 28.1572 44.6478 28.1971 44.5946 28.2503ZM58.8403 26.8534C57.0837 26.8534 55.5 26.5341 54.0894 25.8955C52.7053 25.2302 51.5208 24.3788 50.5361 23.341C49.5513 22.2767 48.7927 21.066 48.2604 19.709C47.7281 18.3519 47.462 16.955 47.462 15.5181C47.462 14.2676 47.7148 12.977 48.2205 11.6466C48.7262 10.2895 49.4714 9.05224 50.4563 7.93468C51.4676 6.81712 52.692 5.89912 54.1293 5.18069C55.5931 4.46226 57.2699 4.10304 59.1597 4.10304C60.8099 4.10304 62.327 4.40904 63.7111 5.02104C65.1217 5.63303 66.3327 6.4446 67.3441 7.45572C68.3555 8.46684 69.1407 9.63763 69.6997 10.9681C70.2852 12.2984 70.578 13.6954 70.578 15.1589C70.578 16.7554 70.2852 18.2721 69.6997 19.709C69.1141 21.1192 68.3023 22.3565 67.2643 23.4209C66.2263 24.4852 64.9886 25.3234 63.5514 25.9354C62.1141 26.5473 60.5437 26.8534 58.8403 26.8534ZM58.481 6.05877C57.7624 6.05877 56.8973 6.25834 55.8859 6.65746C54.9011 7.02998 53.9562 7.58876 53.0513 8.3338C52.173 9.07885 51.4144 9.99687 50.7757 11.0878C50.1634 12.1787 49.8574 13.4427 49.8574 14.8795C49.8574 18.0992 50.6824 20.5604 52.3327 22.2634C54.0095 23.9664 56.3251 24.8178 59.2795 24.8178C59.9981 24.8178 60.8498 24.6714 61.8346 24.3788C62.846 24.0595 63.8042 23.5406 64.7092 22.8222C65.6407 22.1037 66.4259 21.1725 67.0647 20.0283C67.73 18.8841 68.0628 17.4739 68.0628 15.7975C68.0628 14.2542 67.8232 12.8839 67.3441 11.6865C66.8651 10.4625 66.1996 9.43806 65.3479 8.61319C64.4962 7.78833 63.4848 7.16303 62.3137 6.73729C61.1425 6.28495 59.865 6.05877 58.481 6.05877ZM58.6008 17.3541C58.2814 17.3541 58.0152 17.2876 57.8023 17.1545C57.5893 16.9949 57.403 16.822 57.2434 16.6357C57.1102 16.4494 57.0171 16.2632 56.9639 16.0769C56.9106 15.8906 56.884 15.7443 56.884 15.6379C56.884 15.1589 57.0837 14.7598 57.4829 14.4405C57.9087 14.0945 58.2814 13.9216 58.6008 13.9216C59.0532 13.9216 59.4525 14.0945 59.7985 14.4405C60.1444 14.7864 60.3175 15.1057 60.3175 15.3984C60.3175 15.7709 60.2509 16.0902 60.1179 16.3563C60.0114 16.5958 59.865 16.7953 59.6787 16.955C59.519 17.088 59.3327 17.1945 59.1198 17.2743C58.9334 17.3275 58.7605 17.3541 58.6008 17.3541ZM100.867 4.74165C100.655 4.76826 100.508 4.86139 100.428 5.02104C100.375 5.15408 100.335 5.42017 100.308 5.81929C100.282 6.75059 100.255 7.81494 100.228 9.01232C100.202 10.1831 100.176 11.447 100.149 12.804C100.123 14.1344 100.096 15.5181 100.069 16.955C100.043 18.3652 100.016 19.7622 99.9889 21.1458C99.9889 22.5295 99.9759 23.8732 99.949 25.177C99.923 26.4809 99.909 27.6783 99.909 28.7692C99.1375 27.8379 98.2459 26.7336 97.2345 25.4564C96.2497 24.1792 95.1984 22.8354 94.0805 21.4252C92.9626 19.9884 91.8181 18.5382 90.647 17.0747C89.5025 15.6112 88.3846 14.2143 87.2934 12.8839C86.2287 11.5535 85.2306 10.3427 84.2991 9.2518C83.3941 8.16085 82.6356 7.28277 82.0234 6.61755C81.9436 7.25616 81.8238 8.10763 81.6641 9.17197C81.5044 10.2097 81.3314 11.3672 81.1451 12.6444C80.9854 13.9216 80.7991 15.2786 80.5862 16.7155C80.3732 18.1257 80.1736 19.5361 79.9873 20.9463C79.801 22.3565 79.6146 23.7135 79.4284 25.0174C79.2687 26.2946 79.1355 27.4388 79.0291 28.4499C78.9758 28.7692 79.0424 28.9288 79.2288 28.9288C79.3086 28.9288 79.3485 28.9954 79.3485 29.1284C79.3485 29.2349 79.3086 29.2881 79.2288 29.2881H79.1888C78.8694 29.2881 78.59 29.2748 78.3504 29.2481C78.1109 29.2215 77.858 29.2082 77.5919 29.2082C77.3523 29.2082 77.0861 29.2082 76.7934 29.2082C76.5005 29.2349 76.1546 29.2614 75.7554 29.2881C75.6755 29.2881 75.6356 29.2349 75.6356 29.1284C75.6356 28.9954 75.6755 28.9288 75.7554 28.9288C75.9416 28.9022 76.0481 28.8623 76.0747 28.8091C76.1279 28.7293 76.1811 28.5963 76.2344 28.41C76.5538 26.7336 76.9132 24.7114 77.3124 22.3432C77.7116 19.9485 78.1242 17.4739 78.55 14.9194C78.9758 12.365 79.4017 9.86379 79.8276 7.41581C80.2534 4.96782 80.6261 2.82583 80.9455 0.989838C81.5843 1.81471 82.3428 2.79922 83.2212 3.94339C84.126 5.08756 85.0842 6.32486 86.0957 7.65529C87.1337 8.95911 88.1983 10.3028 89.2896 11.6865C90.4075 13.0702 91.4721 14.4138 92.4836 15.7177C93.5216 16.9949 94.493 18.2056 95.398 19.3498C96.3295 20.4673 97.128 21.412 97.7934 22.1836C97.7668 21.1458 97.7535 19.9484 97.7535 18.5914C97.7801 17.2077 97.7934 15.7709 97.7934 14.2808C97.7934 12.7908 97.7801 11.3006 97.7535 9.81058C97.7535 8.29389 97.7402 6.89694 97.7136 5.61973C97.687 5.27382 97.6603 5.06095 97.6338 4.98112C97.6071 4.9013 97.514 4.83477 97.3543 4.78156C97.2744 4.75495 97.2345 4.68843 97.2345 4.582C97.2345 4.47556 97.2744 4.42234 97.3543 4.42234C98.0196 4.47556 98.5919 4.51547 99.071 4.54208C99.5767 4.54208 100.176 4.48887 100.867 4.38243C100.947 4.35582 100.987 4.40904 100.987 4.54208C100.987 4.67512 100.947 4.74165 100.867 4.74165ZM139.883 21.7445C139.883 22.9951 139.67 24.0994 139.244 25.0573C138.819 25.9886 138.22 26.7603 137.448 27.3722C136.703 27.9842 135.798 28.4499 134.733 28.7692C133.669 29.0619 132.497 29.2082 131.219 29.2082C129.942 29.2082 128.731 29.1816 127.586 29.1284C126.469 29.0752 125.178 29.0619 123.714 29.0885C123.394 29.0885 123.062 29.0885 122.716 29.0885C122.37 29.0885 122.011 29.1018 121.638 29.1284C121.558 29.1284 121.518 29.0752 121.518 28.9688C121.518 28.8623 121.558 28.7958 121.638 28.7692C121.904 28.6894 122.077 28.5963 122.157 28.4898C122.264 28.3568 122.33 28.1439 122.356 27.8512C122.356 27.5052 122.356 26.9998 122.356 26.3345C122.383 25.6427 122.396 24.8844 122.396 24.0595C122.396 23.208 122.396 22.3299 122.396 21.4252C122.396 20.494 122.396 19.5892 122.396 18.7111C122.396 17.8331 122.396 17.0348 122.396 16.3164C122.396 15.5713 122.396 14.9593 122.396 14.4804C122.396 13.2564 122.383 12.2186 122.356 11.3672C122.356 10.5157 122.343 9.73075 122.316 9.01232C122.316 8.29389 122.303 7.58876 122.276 6.89694C122.276 6.17851 122.276 5.35364 122.276 4.42234C122.276 4.23608 122.276 4.02322 122.276 3.78374C122.276 3.51765 122.251 3.26487 122.197 3.02539C122.171 2.75931 122.104 2.53314 121.997 2.34688C121.917 2.13401 121.784 1.98766 121.598 1.90783C121.518 1.88122 121.478 1.81471 121.478 1.70827C121.478 1.60183 121.518 1.54862 121.598 1.54862H121.917L123.394 1.62844C124.566 1.65506 125.79 1.66836 127.067 1.66836C128.372 1.64174 129.57 1.60183 130.661 1.54862C131.805 1.4954 132.883 1.61514 133.894 1.90783C134.932 2.17392 135.825 2.59965 136.569 3.18505C137.342 3.77044 137.941 4.51547 138.366 5.42017C138.819 6.32486 139.045 7.3759 139.045 8.57328C139.045 9.29171 138.939 9.9835 138.725 10.6488C138.513 11.2874 138.206 11.8861 137.807 12.4448C137.435 12.977 136.983 13.4427 136.45 13.8418C135.945 14.2409 135.372 14.5336 134.733 14.7199C135.531 14.8795 136.237 15.1988 136.849 15.6778C137.488 16.1301 138.034 16.6889 138.486 17.3541C138.939 17.9927 139.284 18.6979 139.524 19.4695C139.763 20.2411 139.883 20.9995 139.883 21.7445ZM137.248 21.6248C137.248 20.7201 137.062 19.9085 136.689 19.1901C136.344 18.4717 135.891 17.8597 135.332 17.3541C134.773 16.8485 134.134 16.4628 133.415 16.1966C132.697 15.904 131.978 15.7576 131.259 15.7576C130.807 15.7576 130.288 15.7576 129.702 15.7576C129.117 15.7576 128.519 15.7576 127.906 15.7576C127.294 15.7576 126.682 15.7576 126.069 15.7576C125.484 15.7576 124.978 15.7576 124.552 15.7576L124.712 27.013H131.699C132.098 27.013 132.604 26.9598 133.216 26.8534C133.854 26.7469 134.467 26.5208 135.052 26.1749C135.665 25.8024 136.184 25.2569 136.609 24.5384C137.035 23.82 137.248 22.8488 137.248 21.6248ZM136.649 8.49346C136.649 7.50894 136.45 6.69738 136.05 6.05877C135.678 5.42017 135.212 4.92791 134.653 4.582C134.094 4.20948 133.495 3.95669 132.856 3.82365C132.218 3.69061 131.633 3.62409 131.1 3.62409C130.807 3.62409 130.408 3.62409 129.902 3.62409C129.423 3.59748 128.891 3.58417 128.305 3.58417C127.72 3.58417 127.107 3.58417 126.469 3.58417C125.857 3.58417 125.271 3.59748 124.712 3.62409C124.686 4.60861 124.659 5.49999 124.632 6.29825C124.632 7.09651 124.619 7.86815 124.592 8.61319C124.566 9.35824 124.552 10.1299 124.552 10.9281C124.552 11.7264 124.566 12.6178 124.592 13.6023H131.06C131.539 13.6023 132.098 13.5491 132.737 13.4427C133.402 13.3096 134.014 13.0702 134.573 12.7242C135.159 12.3517 135.651 11.8329 136.05 11.1676C136.45 10.5024 136.649 9.61102 136.649 8.49346ZM195.574 21.7445C195.574 22.9951 195.362 24.0994 194.935 25.0573C194.51 25.9886 193.911 26.7603 193.139 27.3722C192.394 27.9842 191.489 28.4499 190.424 28.7692C189.36 29.0619 188.188 29.2082 186.911 29.2082C185.633 29.2082 184.422 29.1816 183.277 29.1284C182.16 29.0752 180.869 29.0619 179.405 29.0885C179.085 29.0885 178.753 29.0885 178.407 29.0885C178.061 29.0885 177.702 29.1018 177.329 29.1284C177.249 29.1284 177.209 29.0752 177.209 28.9688C177.209 28.8623 177.249 28.7958 177.329 28.7692C177.595 28.6894 177.768 28.5963 177.848 28.4898C177.955 28.3568 178.021 28.1439 178.047 27.8512C178.047 27.5052 178.047 26.9998 178.047 26.3345C178.074 25.6427 178.087 24.8844 178.087 24.0595C178.087 23.208 178.087 22.3299 178.087 21.4252C178.087 20.494 178.087 19.5892 178.087 18.7111C178.087 17.8331 178.087 17.0348 178.087 16.3164C178.087 15.5713 178.087 14.9593 178.087 14.4804C178.087 13.2564 178.074 12.2186 178.047 11.3672C178.047 10.5157 178.034 9.73075 178.008 9.01232C178.008 8.29389 177.995 7.58876 177.968 6.89694C177.968 6.17851 177.968 5.35364 177.968 4.42234C177.968 4.23608 177.968 4.02322 177.968 3.78374C177.968 3.51765 177.942 3.26487 177.888 3.02539C177.862 2.75931 177.795 2.53314 177.688 2.34688C177.608 2.13401 177.476 1.98766 177.289 1.90783C177.209 1.88122 177.169 1.81471 177.169 1.70827C177.169 1.60183 177.209 1.54862 177.289 1.54862H177.608L179.085 1.62844C180.257 1.65506 181.481 1.66836 182.758 1.66836C184.063 1.64174 185.261 1.60183 186.352 1.54862C187.496 1.4954 188.574 1.61514 189.585 1.90783C190.624 2.17392 191.516 2.59965 192.26 3.18505C193.033 3.77044 193.632 4.51547 194.057 5.42017C194.51 6.32486 194.736 7.3759 194.736 8.57328C194.736 9.29171 194.63 9.9835 194.416 10.6488C194.204 11.2874 193.897 11.8861 193.498 12.4448C193.126 12.977 192.674 13.4427 192.141 13.8418C191.636 14.2409 191.063 14.5336 190.424 14.7199C191.222 14.8795 191.928 15.1988 192.54 15.6778C193.179 16.1301 193.725 16.6889 194.177 17.3541C194.63 17.9927 194.975 18.6979 195.215 19.4695C195.454 20.2411 195.574 20.9995 195.574 21.7445ZM192.939 21.6248C192.939 20.7201 192.753 19.9085 192.38 19.1901C192.035 18.4717 191.582 17.8597 191.023 17.3541C190.464 16.8485 189.825 16.4628 189.106 16.1966C188.388 15.904 187.669 15.7576 186.951 15.7576C186.498 15.7576 185.979 15.7576 185.393 15.7576C184.809 15.7576 184.21 15.7576 183.597 15.7576C182.985 15.7576 182.373 15.7576 181.76 15.7576C181.175 15.7576 180.669 15.7576 180.243 15.7576L180.403 27.013H187.39C187.789 27.013 188.295 26.9598 188.907 26.8534C189.546 26.7469 190.158 26.5208 190.743 26.1749C191.356 25.8024 191.875 25.2569 192.3 24.5384C192.727 23.82 192.939 22.8488 192.939 21.6248ZM192.34 8.49346C192.34 7.50894 192.141 6.69738 191.741 6.05877C191.369 5.42017 190.903 4.92791 190.344 4.582C189.785 4.20948 189.186 3.95669 188.547 3.82365C187.909 3.69061 187.324 3.62409 186.791 3.62409C186.498 3.62409 186.099 3.62409 185.593 3.62409C185.114 3.59748 184.582 3.58417 183.996 3.58417C183.411 3.58417 182.798 3.58417 182.16 3.58417C181.548 3.58417 180.962 3.59748 180.403 3.62409C180.377 4.60861 180.35 5.49999 180.323 6.29825C180.323 7.09651 180.31 7.86815 180.283 8.61319C180.257 9.35824 180.243 10.1299 180.243 10.9281C180.243 11.7264 180.257 12.6178 180.283 13.6023H186.751C187.23 13.6023 187.789 13.5491 188.428 13.4427C189.093 13.3096 189.705 13.0702 190.264 12.7242C190.85 12.3517 191.342 11.8329 191.741 11.1676C192.141 10.5024 192.34 9.61102 192.34 8.49346ZM222.671 25.9753C222.617 26.4542 222.577 27.0397 222.551 27.7315C222.524 28.4232 222.524 29.0353 222.551 29.5674C222.524 29.5674 222.511 29.5807 222.511 29.6074C222.511 29.6605 222.471 29.6872 222.391 29.6872C222.231 29.6872 222.138 29.6206 222.112 29.4876C222.085 29.3013 221.938 29.1816 221.672 29.1284C221.406 29.1018 221.06 29.0885 220.634 29.0885C219.437 29.0885 218.145 29.0752 216.762 29.0486C215.404 29.0219 214.127 29.0219 212.929 29.0486C211.997 29.0486 211.145 29.0752 210.374 29.1284C209.628 29.155 208.87 29.1683 208.098 29.1683L206.142 29.2481C206.062 29.2748 205.955 29.2881 205.823 29.2881C205.743 29.2881 205.703 29.2349 205.703 29.1284C205.703 29.0219 205.743 28.9555 205.823 28.9288C206.008 28.849 206.142 28.716 206.222 28.5297C206.328 28.3169 206.395 28.0907 206.421 27.8512C206.474 27.5851 206.501 27.3191 206.501 27.0529C206.501 26.7868 206.501 26.5607 206.501 26.3744C206.501 25.4432 206.501 24.6315 206.501 23.9397C206.527 23.2213 206.541 22.5029 206.541 21.7844C206.567 21.066 206.581 20.281 206.581 19.4296C206.607 18.5781 206.621 17.5404 206.621 16.3164C206.621 15.5448 206.621 14.5336 206.621 13.283C206.647 12.0058 206.634 10.5956 206.581 9.05224C206.581 7.53555 206.554 6.23172 206.501 5.14078C206.474 4.02322 206.434 3.18505 206.382 2.62627C206.382 2.38679 206.302 2.22714 206.142 2.14731C206.008 2.04087 205.849 1.98766 205.663 1.98766C205.583 1.96105 205.543 1.89453 205.543 1.7881C205.543 1.65506 205.583 1.60183 205.663 1.62844H206.022C206.714 1.68166 207.366 1.70827 207.979 1.70827C208.59 1.68166 209.162 1.65506 209.695 1.62844C209.775 1.60183 209.815 1.65506 209.815 1.7881C209.815 1.89453 209.775 1.96105 209.695 1.98766H209.496C209.309 2.01427 209.189 2.08079 209.136 2.18722C209.082 2.29366 209.056 2.4134 209.056 2.54644C209.03 2.89235 209.017 3.37131 209.017 3.9833C209.017 4.5953 209.003 5.30043 208.977 6.09868C208.977 6.87033 208.977 7.73511 208.977 8.69302C208.977 9.62432 208.963 10.5822 208.937 11.5667C208.937 11.8329 208.937 12.2585 208.937 12.844C208.937 13.4027 208.937 14.0014 208.937 14.64C208.963 15.2786 208.977 15.8906 208.977 16.476C209.003 17.0615 209.017 17.5005 209.017 17.7932L209.136 26.8534C210.174 26.9066 211.185 26.9465 212.171 26.9731C213.155 26.9731 214.14 26.9731 215.125 26.9731C216.136 26.9465 217.161 26.9066 218.199 26.8534C219.263 26.8002 220.395 26.7204 221.593 26.6139C221.885 26.5873 222.058 26.5473 222.112 26.4942C222.191 26.4143 222.257 26.2414 222.311 25.9753C222.337 25.8688 222.404 25.8289 222.511 25.8556C222.644 25.8556 222.697 25.8955 222.671 25.9753ZM232.966 1.54862C232.726 1.60183 232.567 1.69497 232.487 1.82801C232.434 1.93445 232.394 2.05418 232.367 2.18722C232.314 2.63957 232.26 3.30478 232.207 4.18287C232.18 5.06095 232.155 6.05877 232.128 7.17633C232.128 8.26728 232.115 9.42475 232.088 10.6488C232.061 11.8461 232.048 12.9903 232.048 14.0813C232.048 15.5713 232.061 17.0747 232.088 18.5914C232.115 20.0815 232.141 21.4918 232.168 22.8222C232.22 24.126 232.26 25.2968 232.287 26.3345C232.34 27.3456 232.38 28.1039 232.407 28.6095C232.407 28.9022 232.567 29.0885 232.886 29.1683H233.046C233.126 29.1683 233.166 29.2215 233.166 29.328C233.166 29.461 233.126 29.5275 233.046 29.5275C232.514 29.4743 231.875 29.4477 231.13 29.4477C230.411 29.4477 229.705 29.4743 229.014 29.5275H228.654C228.574 29.5275 228.534 29.461 228.534 29.328C228.534 29.2215 228.574 29.1683 228.654 29.1683C228.841 29.1417 229.001 29.0885 229.133 29.0087C229.293 28.9288 229.386 28.7692 229.413 28.5297C229.44 27.9709 229.466 27.1727 229.493 26.1349C229.546 25.0972 229.585 23.9265 229.612 22.6226C229.665 21.3188 229.692 19.9352 229.692 18.4717C229.719 16.9816 229.732 15.5181 229.732 14.0813C229.732 12.9637 229.732 11.793 229.732 10.5689C229.732 9.34493 229.719 8.18745 229.692 7.09651C229.692 5.97895 229.679 4.98112 229.652 4.10304C229.625 3.19835 229.572 2.50653 229.493 2.02757C229.466 1.92113 229.44 1.82801 229.413 1.74818C229.413 1.66836 229.32 1.60183 229.133 1.54862C229.053 1.52201 229.014 1.45549 229.014 1.34905C229.014 1.24262 229.053 1.1894 229.133 1.1894C229.799 1.24262 230.424 1.26923 231.01 1.26923C231.596 1.26923 232.247 1.24262 232.966 1.1894C233.046 1.1894 233.086 1.24262 233.086 1.34905C233.086 1.45549 233.046 1.52201 232.966 1.54862ZM252.378 26.8534C250.621 26.8534 249.038 26.5341 247.627 25.8955C246.244 25.2302 245.059 24.3788 244.074 23.341C243.09 22.2767 242.331 21.066 241.798 19.709C241.266 18.3519 241 16.955 241 15.5181C241 14.2676 241.253 12.977 241.758 11.6466C242.264 10.2895 243.01 9.05224 243.994 7.93468C245.006 6.81712 246.23 5.89912 247.667 5.18069C249.131 4.46226 250.808 4.10304 252.697 4.10304C254.348 4.10304 255.865 4.40904 257.249 5.02104C258.66 5.63303 259.871 6.4446 260.882 7.45572C261.894 8.46684 262.679 9.63763 263.237 10.9681C263.823 12.2984 264.116 13.6954 264.116 15.1589C264.116 16.7554 263.823 18.2721 263.237 19.709C262.653 21.1192 261.84 22.3565 260.802 23.4209C259.764 24.4852 258.526 25.3234 257.089 25.9354C255.652 26.5473 254.082 26.8534 252.378 26.8534ZM252.019 6.05877C251.3 6.05877 250.436 6.25834 249.424 6.65746C248.44 7.02998 247.494 7.58876 246.589 8.3338C245.711 9.07885 244.952 9.99687 244.313 11.0878C243.702 12.1787 243.395 13.4427 243.395 14.8795C243.395 18.0992 244.221 20.5604 245.87 22.2634C247.547 23.9664 249.863 24.8178 252.817 24.8178C253.536 24.8178 254.388 24.6714 255.372 24.3788C256.384 24.0595 257.343 23.5406 258.247 22.8222C259.179 22.1037 259.964 21.1725 260.602 20.0283C261.268 18.8841 261.601 17.4739 261.601 15.7975C261.601 14.2542 261.361 12.8839 260.882 11.6865C260.403 10.4625 259.738 9.43806 258.886 8.61319C258.034 7.78833 257.023 7.16303 255.852 6.73729C254.681 6.28495 253.403 6.05877 252.019 6.05877ZM252.139 17.3541C251.819 17.3541 251.554 17.2876 251.34 17.1545C251.127 16.9949 250.941 16.822 250.781 16.6357C250.648 16.4494 250.556 16.2632 250.502 16.0769C250.449 15.8906 250.422 15.7443 250.422 15.6379C250.422 15.1589 250.621 14.7598 251.021 14.4405C251.447 14.0945 251.819 13.9216 252.139 13.9216C252.592 13.9216 252.991 14.0945 253.336 14.4405C253.683 14.7864 253.855 15.1057 253.855 15.3984C253.855 15.7709 253.789 16.0902 253.656 16.3563C253.55 16.5958 253.403 16.7953 253.216 16.955C253.057 17.088 252.871 17.1945 252.658 17.2743C252.472 17.3275 252.298 17.3541 252.139 17.3541Z" fill="black"/>
</svg>
